<?xml version="1.0" encoding="UTF-8"?>
<svg width="300px" height="246px" viewBox="0 0 300 246" version="1.1" xmlns="http://www.w3.org/2000/svg" xmlns:xlink="http://www.w3.org/1999/xlink">
    <!-- Generator: sketchtool 50.2 (55047) - http://www.bohemiancoding.com/sketch -->
    <title>98368AB0-501E-42C6-A68A-B27631D4C0C4</title>
    <desc>Created with sketchtool.</desc>
    <defs></defs>
    <g id="Page-1" stroke="none" stroke-width="1" fill="none" fill-rule="evenodd">
        <g id="home" transform="translate(-770.000000, -2369.000000)">
            <g id="headerPreview-04" transform="translate(770.000000, 2369.000000)">
                <polygon id="Shape" fill="#B2D4FF" fill-rule="nonzero" points="286.55653 16.0630137 63.2468284 60.7114521 70.8027985 156.748055 247.938806 229.196178"></polygon>
                <g id="Group" fill-rule="nonzero">
                    <path d="M125.372575,134.232877 C136.193284,130.863014 151.119403,143.780822 146.641791,158.383562 C142.164179,172.986301 129.476866,224.09589 129.476866,224.09589 C129.476866,224.09589 125.745896,226.716521 116.790672,226.342466 C107.835448,225.968411 108.208769,221.849315 106.716045,220.726027 C105.223321,219.60274 110.820896,186.465753 110.820896,186.465753 L94.4026119,208.369863 C94.4026119,208.369863 62.6854478,197.886219 62.3126866,181.785575 C62.3126866,181.785575 115.302425,137.369096 125.372575,134.232877 Z" id="Shape" fill="#19145B"></path>
                    <path d="M126.865299,218.105397 C126.865299,218.105397 136.567164,229.337712 141.417537,231.958904 C146.26791,234.580096 151.118284,242.068493 146.26791,244.315068 C141.417537,246.561644 123.879851,242.44311 123.879851,242.44311 C123.879851,242.44311 101.11847,230.835616 101.491791,226.342466 C101.865112,221.849315 106.342724,215.109589 106.342724,215.109589" id="Shape" fill="#2B216E"></path>
                    <path d="M24.326306,213.734685 C24.326306,213.734685 16.586194,226.408178 15.5613806,231.839836 C14.5365672,237.271493 8.8875,244.173534 5.2886194,240.211699 C1.6891791,236.250425 0.304477612,218.230082 0.304477612,218.230082 C0.304477612,218.230082 4.45578358,192.949932 8.83712687,191.950205 C13.2179104,190.950479 20.973694,193.197616 20.973694,193.197616" id="Shape" fill="#2B216E"></path>
                    <path d="M61.9399254,176.543753 C61.9399254,176.543753 121.641045,213.237068 122.014366,219.60274 C122.387687,225.968411 107.088806,245.812973 102.984515,245.812973 C98.8802239,245.812973 23.8802239,216.232877 23.8802239,216.232877 L15.6716418,190.022644 L21.6414179,191.520548 C21.6414179,191.520548 19.7753731,184.032712 22.3875,175.420466 L61.9399254,176.543753 Z" id="Shape" fill="#1D1768"></path>
                    <path d="M60.4477612,65.7123288 C60.4477612,65.7123288 39.1791045,68.7075753 26.8656716,78.8171644 C14.5522388,88.9267534 19.0298507,178.041096 19.0298507,178.041096 C19.0298507,178.041096 59.3277985,187.027959 77.6115672,179.913616 C95.8953358,172.799274 102.985075,156.69863 102.985075,156.69863 L99.6268657,100.908863 L114.551866,93.7945205 C114.551866,93.7945205 99.9996269,73.2012877 85.820709,69.4568082 C71.641791,65.7123288 73.880597,64.9636575 60.4477612,65.7123288 Z" id="Shape" fill="#2B216E"></path>
                    <path d="M101.863993,78.2892192 C101.248881,78.3223562 100.666231,78.8486164 100.569403,79.4585616 L92.8080224,128.069397 C92.7106343,128.679342 93.1337687,129.148315 93.7483209,129.110685 L133.491604,126.718082 C134.106157,126.681014 134.686567,126.150822 134.781157,125.540315 L142.272761,77.2125479 C142.367351,76.6020411 141.941978,76.1296986 141.327425,76.1628356 L101.863993,78.2892192 Z" id="Shape" fill="#F2F2F2"></path>
                    <path d="M97.2850746,128.068836 L105.046455,79.458 C105.143843,78.8480548 105.726493,78.3217945 106.341045,78.2886575 L141.976679,76.3689589 C141.809328,76.2291096 141.586567,76.1487945 141.325746,76.1628356 L101.863433,78.2886575 C101.248321,78.3217945 100.665672,78.8480548 100.568843,79.458 L92.8074627,128.068836 C92.7100746,128.678781 93.133209,129.147753 93.7477612,129.110123 L97.5447761,128.881534 C97.338806,128.692822 97.231903,128.404137 97.2850746,128.068836 Z" id="Shape" fill="#E6E6E6"></path>
                    <path d="M60.4477612,52.7945205 L58.2089552,71.890411 C58.2089552,71.890411 59.0485075,77.2260274 66.0447761,79.4726027 C73.0410448,81.7191781 77.238806,77.7876712 77.238806,77.7876712 L83.3955224,54.4794521" id="Shape" fill="#FCDFC6"></path>
                    <path d="M101.30597,24.7123288 C101.30597,24.7123288 102.985075,69.6438356 80.5970149,68.5205479 C58.2089552,67.3972603 57.9850746,42.6781918 57.0895522,29.2054795 C55.4104478,3.93150685 102.985075,-4.49315068 101.30597,24.7123288 Z" id="Shape" fill="#FCDFC6"></path>
                    <path d="M57.0895522,29.2054795 C57.0895522,29.2054795 75.2843284,23.2144247 85.0751866,23.2144247 C96.8289179,23.2144247 98.5074627,32.5753425 104.104478,28.6438356 C109.701493,24.7123288 109.141791,1.68493151 77.7985075,0.561643836 C46.4552239,-0.561643836 44.7761194,41 53.1716418,50.5479452 C61.5671642,60.0958904 60.4477612,52.7945205 60.4477612,52.7945205 L57.0895522,29.2054795 Z" id="Shape" fill="#2B216E"></path>
                    <path d="M63.4326493,38.7534247 C63.4326493,38.7534247 61.7541045,33.1369863 56.3434701,34.6348904 C50.9328358,36.1327945 54.2916045,44.5574521 58.0225746,49.0506027 C61.7535448,53.5437534 61.7535448,53.5437534 61.7535448,53.5437534" id="Shape" fill="#FCDFC6"></path>
                    <polyline id="Shape" fill="#2B216E" points="60.6347015 26.2102329 64.505597 45.9143836 62.7565299 44.7675068 55.9701493 30.5157945 55.9701493 28.0821918"></polyline>
                    <path d="M44.0300373,117.196534 L47.7615672,131.424658 L99.6274254,111.580096 C99.6274254,111.580096 102.238993,108.209671 109.328731,104.091137 C116.41847,99.9726027 116.697761,101.09589 116.697761,101.09589 C116.697761,101.09589 119.309328,102.968411 113.339552,107.835616 C107.369776,112.702822 110.075373,113.82611 115.299067,113.077438 C120.522761,112.328767 123.507649,117.570589 122.761567,124.684932 C122.015485,131.799274 117.910634,133.016356 114.179104,133.390411 C110.447575,133.764466 101.11959,130.301932 92.5376866,135.169137 C83.9557836,140.036342 42.9106343,164.561644 33.5820896,153.328767 C24.2535448,142.09589 28.3583955,124.497904 28.3583955,124.497904" id="Shape" fill="#FCDFC6"></path>
                    <path d="M47.0149254,91.1733288 L51.1192164,130.488397 C37.3130597,129.36511 25.7468284,139.474137 25.7468284,139.474137 C24.6274254,130.113219 17.5371269,101.282356 21.2686567,86.3055616 C23.2326493,78.4228904 30.4578358,74.5705753 40.2985075,71.3282055 C40.2985075,71.3287671 47.0149254,69.830863 47.0149254,91.1733288 Z" id="Shape" fill="#2B216E"></path>
                    <path d="M139.645522,99.6917808 C139.645522,99.6917808 133.208955,98.2876712 131.529851,102.780822 C129.850746,107.273973 125.652985,122.157534 133.208955,123 C140.764925,123.842466 140.485075,123.842466 142.164179,116.541096 C143.843284,109.239726 143.283582,103.342466 143.843284,102.219178 C144.402985,101.09589 141.884328,99.9726027 139.645522,99.6917808 Z" id="Shape" fill="#FCDFC6"></path>
                    <path d="M42.1639925,78.8171644 C42.1639925,78.8171644 48.8804104,117.757616 48.8804104,121.876712 C48.8804104,125.995808 54.4774254,115.511603 54.4774254,115.511603 L42.1639925,78.8171644 Z" id="Shape" fill="#19145B"></path>
                    <polygon id="Shape" fill="#19145B" points="32.4626866 188.899356 87.3134328 222.223932 27.2389925 192.643836"></polygon>
                </g>
                <g id="Group" transform="translate(137.686567, 12.356164)">
                    <path d="M155.436381,132.314301 C155.525933,134.474384 153.837313,136.316014 151.684701,136.405315 L15.2350746,142.097014 C13.0824627,142.186877 11.2477612,140.492959 11.158209,138.332315 L7.99757463,62.0144658 C7.90802239,59.8538219 9.59608209,58.0127534 11.748694,57.9228904 L148.198321,52.2317534 C150.351493,52.1418904 152.185634,53.8358082 152.275187,55.9964521 L155.436381,132.314301 Z" id="Shape" fill="#546EFD" fill-rule="nonzero"></path>
                    <g transform="translate(54.291045, 24.712329)" id="Shape" stroke="#E6E6E6" stroke-linecap="round" stroke-linejoin="round" stroke-width="1.12">
                        <path d="M14.5796642,0.298232877 L0.480223881,42.3518767"></path>
                        <path d="M26.7811567,4.41732877 L12.6817164,46.4709726"></path>
                        <path d="M38.9820896,8.53642466 L24.8826493,50.5900685"></path>
                        <path d="M51.1830224,12.6555205 L37.0835821,54.7091644"></path>
                        <path d="M63.3845149,16.7746164 L49.2850746,58.8282603"></path>
                        <path d="M75.5854478,20.8937123 L61.4860075,62.9473562"></path>
                        <path d="M87.7869403,25.0128082 L73.6869403,67.0664521"></path>
                    </g>
                    <path d="M137.452612,121.64363 C136.765858,123.692507 134.53209,124.805685 132.490299,124.115986 L3.05205224,80.4172877 C1.01026119,79.727589 -0.0990671642,77.4866301 0.588246269,75.4371918 L24.8608209,3.04130137 C25.5481343,0.991863014 27.7813433,-0.120753425 29.8231343,0.568945205 L159.261381,44.2676438 C161.303172,44.9573425 162.4125,47.1977397 161.725187,49.2477397 L137.452612,121.64363 Z" id="Shape" fill="#E7F4FC" fill-rule="nonzero"></path>
                    <path d="M54.7561567,8.98630137 L29.8231343,0.568945205 C27.7813433,-0.120753425 25.5475746,0.991863014 24.8608209,3.04130137 L0.588246269,75.4371918 C-0.0990671642,77.4866301 1.01026119,79.727589 3.05205224,80.4172877 L27.9850746,88.8346438 L54.7561567,8.98630137 Z" id="Shape" fill="#2B216E" fill-rule="nonzero"></path>
                    <ellipse id="Oval" fill="#E7F4FC" fill-rule="nonzero" cx="33.5317164" cy="24.7336712" rx="7.2761194" ry="7.30136986"></ellipse>
                    <path d="M23.4380597,37.2268767 L34.0477612,40.8090411" id="Shape" stroke="#E7F4FC" stroke-width="1.68" stroke-linecap="round" stroke-linejoin="round"></path>
                    <path d="M15.4063433,61.1815479 L26.0160448,64.7637123" id="Shape" stroke="#E7F4FC" stroke-width="1.68" stroke-linecap="round" stroke-linejoin="round"></path>
                    <path d="M14.1576493,64.9074932 L24.766791,68.4896575" id="Shape" stroke="#E7F4FC" stroke-width="1.68" stroke-linecap="round" stroke-linejoin="round"></path>
                    <path d="M12.9083955,68.634 L23.518097,72.2161644" id="Shape" stroke="#E7F4FC" stroke-width="1.68" stroke-linecap="round" stroke-linejoin="round"></path>
                    <path d="M11.6585821,72.3605068 L22.2682836,75.9421096" id="Shape" stroke="#E7F4FC" stroke-width="1.68" stroke-linecap="round" stroke-linejoin="round"></path>
                    <rect id="Rectangle-path" fill="#FFFFFF" fill-rule="nonzero" transform="translate(96.825702, 59.640600) rotate(18.596202) translate(-96.825702, -59.640600) " x="49.8102585" y="34.0855235" width="94.0308874" height="51.1101525"></rect>
                    <g transform="translate(54.291045, 24.712329)" id="Shape" stroke="#E6E6E6" stroke-linecap="round" stroke-linejoin="round" stroke-width="1.12">
                        <path d="M14.5796642,0.298232877 L0.480223881,42.3518767"></path>
                        <path d="M26.7811567,4.41732877 L12.6817164,46.4709726"></path>
                        <path d="M38.9820896,8.53642466 L24.8826493,50.5900685"></path>
                        <path d="M51.1830224,12.6555205 L37.0835821,54.7091644"></path>
                        <path d="M63.3845149,16.7746164 L49.2850746,58.8282603"></path>
                        <path d="M75.5854478,20.8937123 L61.4860075,62.9473562"></path>
                        <path d="M87.7869403,25.0128082 L73.6869403,67.0664521"></path>
                    </g>
                    <path d="M141.003358,55.285411 C140.384328,51.5033014 137.462687,49.0719452 133.900746,48.1053562 C129.745522,46.978137 126.121455,48.9326575 122.951866,51.4426438 C119.103358,54.4901233 115.716045,58.9349726 110.260075,57.825726 C107.908769,57.3477671 105.905037,56.9068767 103.503358,57.2977808 C101.350746,57.6488082 99.3906716,59.4033836 97.7636194,60.7311096 C96.2009328,62.0066027 93.6464552,64.7024932 91.3835821,63.7100685 C89.7050373,62.9737534 88.436194,61.0467534 86.9333955,59.9762603 C82.9847015,57.1641096 78.0229478,59.6611781 74.4766791,61.7903699 C71.7912313,63.4022877 69.3050373,64.7024932 66.0727612,64.0717671 C63.616791,63.5921233 62.261194,61.2180548 60.1651119,60.0211918 C56.6227612,57.997589 51.7645522,60.4536575 49.0119403,62.7485342 C47.3445896,64.1386027 49.7339552,66.5093014 51.386194,65.1310274 C53.0378731,63.7544384 55.1065299,62.8204247 57.2619403,62.7260685 C59.3664179,62.6345205 60.8126866,64.9911781 62.3227612,66.1481644 C65.9692164,68.9423425 71.2248134,67.5118356 74.7878731,65.5202466 C78.9335821,63.2023425 82.7837687,60.3211096 86.9009328,64.3391096 C89.6031716,66.9760274 92.1134328,68.0122603 95.705597,66.3750685 C99.7125,64.5486027 101.989925,59.8145068 106.957836,60.5384658 C109.036007,60.8411918 110.919963,61.5292055 113.050746,61.4157534 C115.03153,61.3101644 116.922761,60.3913151 118.578918,59.3657534 C121.988619,57.2545342 124.515672,53.9992466 128.019963,52.011589 C131.739739,49.9020548 137.046269,51.7936712 137.764925,56.1806712 C138.115858,58.3216575 141.351493,57.4106712 141.003358,55.285411 Z" id="Shape" fill="#77CE6F" fill-rule="nonzero"></path>
                    <path d="M43.3343284,74.7576027 L54.4740672,78.5189315" id="Shape" stroke="#90BDE6" stroke-width="1.68" stroke-linecap="round" stroke-linejoin="round"></path>
                    <path d="M41.7279851,79.5489863 L63.4774254,86.8913562" id="Shape" stroke="#90BDE6" stroke-width="1.68" stroke-linecap="round" stroke-linejoin="round"></path>
                    <g transform="translate(72.201493, 84.808219)" id="Shape" stroke="#90BDE6" stroke-linecap="round" stroke-linejoin="round" stroke-width="1.68">
                        <path d="M1.90074627,0.336986301 L27.363806,8.93350685"></path>
                        <path d="M0.293843284,5.12780822 L18.3307836,11.2171507"></path>
                    </g>
                    <g transform="translate(105.783582, 96.041096)" id="Shape" stroke="#90BDE6" stroke-linecap="round" stroke-linejoin="round" stroke-width="1.68">
                        <path d="M1.73899254,0.386972603 L17.6535448,5.76021918"></path>
                        <path d="M0.132649254,5.17835616 L18.1690299,11.2676986"></path>
                    </g>
                </g>
                <path d="M93.8434701,40.0637397 C93.8434701,40.0637397 92.7240672,51.2966164 92.5376866,52.4199041 C92.351306,53.5431918 85.4479478,54.1048356 86.0076493,51.4836438 C86.5673507,48.8624521 93.8434701,40.0637397 93.8434701,40.0637397 Z" id="Shape" fill="#FF9F48" fill-rule="nonzero"></path>
            </g>
        </g>
    </g>
</svg>