<?xml version="1.0" encoding="UTF-8"?>
<svg width="274px" height="242px" viewBox="0 0 274 242" version="1.1" xmlns="http://www.w3.org/2000/svg" xmlns:xlink="http://www.w3.org/1999/xlink">
    <!-- Generator: sketchtool 50.2 (55047) - http://www.bohemiancoding.com/sketch -->
    <title>1441CFE0-5331-48C0-A5A0-1359FC7BA864</title>
    <desc>Created with sketchtool.</desc>
    <defs></defs>
    <g id="Page-1" stroke="none" stroke-width="1" fill="none" fill-rule="evenodd">
        <g id="home" transform="translate(-770.000000, -1512.000000)">
            <g id="headerPreview-02" transform="translate(770.000000, 1512.000000)">
                <polygon id="Shape" fill="#B2D4FF" fill-rule="nonzero" points="70.7459016 31.4431555 49.4098361 204.941995 274 166.761021 268.946721 24.1438515"></polygon>
                <g id="Group" transform="translate(106.680328, 124.649652)" fill-rule="nonzero">
                    <ellipse id="Oval" fill="#90BDE6" cx="32.5655738" cy="113.981439" rx="13.0262295" ry="3.36890951"></ellipse>
                    <path d="M65.1311475,9.73277958 C65.1311475,17.7805429 50.5507541,21.5234014 32.5655738,21.5234014 C14.5803934,21.5234014 0,17.7805429 0,9.73277958 C0,3.63393039 14.5803934,0.93599536 32.5655738,0.93599536 C50.5507541,0.93599536 65.1311475,3.63393039 65.1311475,9.73277958 Z" id="Shape" fill="#BEE2ED"></path>
                    <ellipse id="Oval" fill="#E7F4FC" cx="32.5655738" cy="8.42227378" rx="32.5655738" ry="8.42227378"></ellipse>
                    <rect id="Rectangle-path" fill="#BEE2ED" x="30.3196721" y="17.4060325" width="4.49180328" height="96.575406"></rect>
                </g>
                <g id="Group">
                    <path d="M163.729598,61.2428445 C164.892975,64.1030487 163.505008,67.3955963 160.644291,68.5595545 L80.5515082,101.143647 C77.690791,102.307044 74.3982992,100.919053 73.2349221,98.0582877 L49.7495287,40.3280928 C48.5861516,37.4673271 49.9741189,34.1753411 52.8348361,33.0113828 L132.927619,0.427851508 C135.788336,-0.735545244 139.080828,0.652445476 140.244205,3.51321114 L163.729598,61.2428445 Z" id="Shape" fill="#546EFD" fill-rule="nonzero"></path>
                    <path d="M91.8989262,147.819327 C90.8006803,150.705921 87.5396311,152.168028 84.654209,151.069202 L3.84217623,120.311619 C0.955631148,119.212794 -0.507012295,115.952812 0.591795082,113.06678 L22.7605287,54.8177726 C23.8593361,51.9317401 27.1192623,50.4696334 30.0058074,51.5678979 L110.817279,82.3254803 C113.703824,83.4243063 115.166467,86.6842877 114.06766,89.5703202 L91.8989262,147.819327 Z" id="Shape" fill="#546EFD" fill-rule="nonzero"></path>
                    <g transform="translate(14.598361, 59.517401)" id="Shape">
                        <path d="M86.2920328,52.5673411 C87.794541,55.9542181 86.252168,59.9559211 82.8647869,61.4584548 L31.0265697,84.4518237 C27.6391885,85.9543573 23.6381148,84.4125197 22.1356066,81.0245197 L0.736094262,32.7778051 C-0.76697541,29.3903666 0.775959016,25.3892251 4.16334016,23.8866914 L56.0015574,0.893322506 C59.3889385,-0.609211137 63.3900123,0.93262645 64.8925205,4.32062645 L86.2920328,52.5673411 Z" fill="#FAFAFA" fill-rule="nonzero"></path>
                        <path d="M0.53452459,32.2533782 L64.6387336,3.81865893 C62.9784508,0.786640371 59.2160041,-0.532287703 56.0015574,0.893322506 L4.16334016,23.8866914 C0.949454918,25.3128631 -0.598532787,28.9872204 0.53452459,32.2533782 Z" fill="#90BDE6" fill-rule="nonzero"></path>
                        <path d="M9.91284836,35.4645104 L25.8486434,71.3928074" stroke="#E7F4FC" stroke-width="2.24" stroke-linecap="round" stroke-linejoin="round"></path>
                        <path d="M19.6645533,31.1393921 L35.6003484,67.0671276" stroke="#E7F4FC" stroke-width="2.24" stroke-linecap="round" stroke-linejoin="round"></path>
                        <path d="M29.4162582,26.8137123 L45.3520533,62.7414478" stroke="#E7F4FC" stroke-width="2.24" stroke-linecap="round" stroke-linejoin="round"></path>
                        <path d="M39.1685246,22.4880325 L55.1043197,58.4163295" stroke="#E7F4FC" stroke-width="2.24" stroke-linecap="round" stroke-linejoin="round"></path>
                        <path d="M48.919668,18.1623527 L64.8560246,54.0906497" stroke="#E7F4FC" stroke-width="2.24" stroke-linecap="round" stroke-linejoin="round"></path>
                        <path d="M58.671373,13.8372343 L74.6077295,49.7649698" stroke="#E7F4FC" stroke-width="2.24" stroke-linecap="round" stroke-linejoin="round"></path>
                        <path d="M10.823,37.5172993 L14.0104959,44.7031833" stroke="#90BDE6" stroke-width="3.36" stroke-linecap="round" stroke-linejoin="round"></path>
                        <path d="M25.1282705,43.4572483 L28.3157664,50.6425708" stroke="#90BDE6" stroke-width="3.36" stroke-linecap="round" stroke-linejoin="round"></path>
                        <path d="M33.9692623,37.0787796 L37.1567582,44.2646636" stroke="#90BDE6" stroke-width="3.36" stroke-linecap="round" stroke-linejoin="round"></path>
                        <path d="M48.5019303,43.5313643 L51.6894262,50.7172483" stroke="#90BDE6" stroke-width="3.36" stroke-linecap="round" stroke-linejoin="round"></path>
                        <path d="M54.8393033,31.5071647 L58.0262377,38.6930487" stroke="#90BDE6" stroke-width="3.36" stroke-linecap="round" stroke-linejoin="round"></path>
                        <path d="M67.7779426,34.3673689 L70.9654385,41.5532529" stroke="#90BDE6" stroke-width="3.36" stroke-linecap="round" stroke-linejoin="round"></path>
                    </g>
                    <g transform="translate(88.151639, 14.598608)">
                        <path d="M97.2020615,78.3934014 C96.8455246,81.4607935 94.0443238,83.6792204 90.9764221,83.3226775 L5.08696721,73.343406 C2.01962705,72.9868631 -0.198762295,70.1856148 0.15777459,67.1182227 L7.35083607,5.21001856 C7.70737295,2.14262645 10.5085738,-0.075800464 13.5764754,0.280742459 L99.4659303,10.2600139 C102.53327,10.6165568 104.75166,13.4178051 104.395123,16.4851972 L97.2020615,78.3934014 Z" id="Shape" fill="#FAFAFA" fill-rule="nonzero"></path>
                        <path d="M15.2491107,0.475016241 L13.5764754,0.280742459 C10.5085738,-0.075800464 7.70737295,2.14206497 7.35083607,5.21001856 L0.15777459,67.1182227 C-0.198762295,70.1856148 2.01962705,72.9874246 5.08696721,73.343406 L6.76016393,73.5376798 L15.2491107,0.475016241 Z" id="Shape" fill="#90BDE6" fill-rule="nonzero"></path>
                        <path d="M21.8908033,11.4211647 L64.8358115,16.4110812" id="Shape" stroke="#E6E6E6" stroke-width="2.24" stroke-linecap="round" stroke-linejoin="round"></path>
                        <path d="M21.0485902,18.6716195 L89.0909877,26.5773271" id="Shape" stroke="#E6E6E6" stroke-width="2.24" stroke-linecap="round" stroke-linejoin="round"></path>
                        <ellipse id="Oval" fill="#90BDE6" fill-rule="nonzero" cx="87.8439508" cy="9.33356381" rx="9.12397541" ry="9.12412993"></ellipse>
                        <g transform="translate(81.975410, 3.368910)" fill="#FFFFFF" fill-rule="nonzero" id="Shape">
                            <path d="M10.8072787,7.24483991 L0.768098361,6.07863573 C0.306565574,6.02473318 -0.024704918,5.6069884 0.0291967213,5.14488631 C0.0830983607,4.68278422 0.500836066,4.35150812 0.962930328,4.40541067 L11.0015492,5.57161485 C11.4636434,5.6255174 11.7949139,6.04326218 11.7410123,6.50536427 C11.6871107,6.96746636 11.2688115,7.29874246 10.8072787,7.24483991 Z"></path>
                            <path d="M4.77029508,11.7720928 C4.30820082,11.7181903 3.97693033,11.3004455 4.03083197,10.8383434 L5.19701639,0.799554524 C5.25091803,0.337452436 5.66921721,0.00617633411 6.13075,0.0600788863 C6.59284426,0.113419954 6.92411475,0.531726218 6.87021311,0.993828306 L5.70346721,11.0326172 C5.65012705,11.4947193 5.23182787,11.8259954 4.77029508,11.7720928 Z"></path>
                        </g>
                        <path d="M95.3834426,45.3971787 C95.1695205,47.2377262 93.4884631,48.5684455 91.6485082,48.3550812 L21.3753689,40.1899675 C19.5348525,39.9760418 18.2041557,38.2949559 18.4175164,36.4549698 L19.3894303,28.089406 C19.6033525,26.2488585 21.2838484,24.9181392 23.1243648,25.1315035 L93.3975041,33.2966172 C95.237459,33.5105429 96.5681557,35.1916288 96.3547951,37.0316148 L95.3834426,45.3971787 Z" id="Shape" fill="#F2F2F2" fill-rule="nonzero"></path>
                        <rect id="Rectangle-path" fill="#F2F2F2" fill-rule="nonzero" transform="translate(30.345598, 62.707594) rotate(6.626823) translate(-30.345598, -62.707594) " x="16.5897115" y="49.2322121" width="27.511773" height="26.9507647"></rect>
                        <path d="M18.0682787,44.3275499 L76.629041,51.1316241" id="Shape" stroke="#E6E6E6" stroke-width="2.24" stroke-linecap="round" stroke-linejoin="round"></path>
                        <g transform="translate(48.848361, 71.870070)" id="Shape" stroke-linecap="round" stroke-linejoin="round" stroke-width="2.24">
                            <path d="M0.454233607,0.392477958 L12.7241557,1.81808817" stroke="#77CE6F"></path>
                            <path d="M16.6280943,2.27176798 L28.8985779,3.69737819" stroke="#E26161"></path>
                        </g>
                        <path d="M51.1818525,56.088413 L90.2223607,60.6246497" id="Shape" stroke="#E6E6E6" stroke-width="2.24" stroke-linecap="round" stroke-linejoin="round"></path>
                        <path d="M50.2745082,63.8969838 L82.6222295,67.6555638" id="Shape" stroke="#E6E6E6" stroke-width="2.24" stroke-linecap="round" stroke-linejoin="round"></path>
                    </g>
                </g>
                <g id="Group" transform="translate(180.233607, 34.250580)" fill-rule="nonzero">
                    <path d="M71.056959,169.389893 C71.056959,169.389893 74.3848238,174.561731 72.9620451,180.459007 C71.5387049,186.355722 67.0575697,190.267026 67.0575697,190.267026 C67.0575697,190.267026 76.7508811,191.046367 80.0377582,188.199638 C83.3246352,185.35291 88.8624672,178.784097 88.8624672,178.784097 L79.3594959,165.15349" id="Shape" fill="#D1ECF7"></path>
                    <path d="M34.2718975,87.807819 L47.5120492,142.844009 L72.7183648,173.748701 C72.7183648,173.748701 77.2713689,174.535903 81.1270205,166.79078 L61.9447746,132.916956 L53.8819877,81.7246914 C53.8814262,81.7246914 40.6379057,84.2687796 34.2718975,87.807819 Z" id="Shape" fill="#2B216E"></path>
                    <path d="M30.9547008,93.7999861 L22.0766516,149.714339 L29.9182172,189.717332 C29.9182172,189.717332 33.644168,192.621332 40.849582,187.493852 L39.8703689,147.714891 L57.2564549,97.6776009 C57.2564549,97.6776009 38.3993033,93.6747749 30.9547008,93.7999861 Z" id="Shape" fill="#3C3278"></path>
                    <path d="M36.3903443,1.71982831 C36.3903443,1.71982831 31.7542418,0.121280742 29.5162008,5.23696984 C27.2781598,10.3526589 29.1967213,13.5497541 28.2377213,19.3049745 C27.2781598,25.0601949 25.0406803,26.6587425 28.0777008,31.9338933 C31.1152828,37.2096056 33.8333852,37.3690673 31.2753033,41.8452251 C28.7166598,46.3213828 22.3225779,49.0395313 32.0742828,52.236065 C41.8259877,55.4331601 53.0156311,67.2630858 61.8077746,67.2630858 C70.6004795,67.2630858 70.7599385,59.5898329 70.7599385,59.5898329 C70.7599385,59.5898329 66.443877,63.4264594 67.402877,57.8312622 C68.361877,52.236065 73.4774795,36.0900046 68.8419385,30.8142923 C64.2063975,25.53858 59.8897746,22.8215545 59.7297541,17.2263573 C59.5697336,11.6311601 58.2912541,5.23640835 51.8966107,3.47783759 C45.5019672,1.71982831 43.5834057,-1.63785151 36.3903443,1.71982831 Z" id="Shape" fill="#2B216E"></path>
                    <g transform="translate(0.000000, 6.737819)" id="Shape">
                        <path d="M41.8360943,29.7783527 C41.8360943,29.7783527 35.6121393,26.9310626 32.2326189,37.0681114 C30.0271434,43.6846497 25.8306762,52.3640835 25.8306762,52.3640835 L7.15712705,49.3404872 C7.15712705,49.3404872 5.73490984,45.7846032 3.6007418,44.1826868 C1.46657377,42.5818933 0.399209016,44.7160974 0.220659836,45.606051 C0.043795082,46.4948817 3.06621721,51.8295499 4.48955738,52.718942 C5.91289754,53.6083341 26.0086639,61.4337494 29.7435984,60.5449188 C33.4779713,59.6549652 38.1022828,49.3404872 38.1022828,49.3404872 C38.1022828,49.3404872 47.1712336,30.6677448 41.8360943,29.7783527 Z" fill="#F8D1C4"></path>
                        <path d="M42.5474836,37.7800742 L34.2690902,56.2579814 C33.6458525,57.1765708 32.9833115,58.0468724 32.3101025,58.7638886 C30.5981639,51.6824408 27.6111148,50.7217401 26.6616598,50.5998979 C27.9985328,47.7222877 30.6363443,41.8564548 32.2320574,37.0681114 C33.2606803,33.9833132 34.5526352,31.5717355 35.8518893,30.4459582 C38.622209,28.7300603 41.3021311,29.2432575 41.3021311,29.2432575 L41.8355328,29.7783527 C43.6142869,31.5576984 42.5474836,37.7800742 42.5474836,37.7800742 Z" fill="#546EFD"></path>
                        <path d="M61.4080041,99.2918701 L29.5156393,98.0925383 C29.5156393,98.0925383 33.8547213,39.2708167 35.4554877,35.0029698 C37.0562541,30.734 42.5918402,27.4218005 54.6848975,29.9114246 C66.7773934,32.4016102 64.2434549,35.646993 63.888041,40.9827842 C63.532627,46.3185754 61.4080041,99.2918701 61.4080041,99.2918701 Z" fill="#FFFFFF"></path>
                        <path d="M63.5663156,38.3033782 C63.5663156,38.3033782 72.837959,104.486729 70.4398975,106.244176 C68.0418361,108.002747 41.8254262,101.608557 41.8254262,101.608557 C41.8254262,101.608557 42.3049262,73.3125244 42.6244057,60.8436288 C42.9433238,48.3741717 54.6141516,29.6705476 54.6141516,29.6705476 L62.9273566,32.2281114 L63.5663156,38.3033782 Z" fill="#546EFD"></path>
                        <path d="M38.850168,24.496464 C38.850168,24.496464 40.4082623,28.0282042 40.5463852,32.3892575 C40.6255533,34.8788817 35.5722746,37.5032622 39.3841311,39.4353318 C45.9814672,42.7800974 51.1217746,30.1876752 52.1885779,29.6542645 C53.2553811,29.1202923 50.0549713,29.2988445 50.0549713,21.8288492" fill="#F7C1B2"></path>
                        <path d="M32.2320574,5.23584687 C32.2320574,5.23584687 31.1658156,16.4397169 32.765459,20.8855545 C34.3662254,25.3319536 38.4565738,29.2443805 44.5031025,28.1775592 C50.5501926,27.1107378 54.2840041,20.3510209 54.8179672,16.082051 C55.3513689,11.8136427 53.7511639,4.16846404 45.2144918,1.50084919 C36.6783811,-1.16676566 32.5880328,1.85683063 32.2320574,5.23584687 Z" fill="#F8D1C4"></path>
                        <path d="M56.8521926,39.3432483 C56.8521926,39.3432483 59.035209,27.6127053 65.4062705,33.7716334 C70.782959,38.9681763 72.9176885,70.2765754 72.9176885,70.2765754 L62.1272541,66.2001949 C62.1272541,66.2001949 56.7107008,44.3747146 56.8521926,39.3432483 Z" fill="#546EFD"></path>
                        <path d="M46.4104344,102.438993 C46.4104344,102.438993 43.9814918,100.414278 48.4592582,97.6124687 C53.3805902,94.5344084 55.1733811,92.816826 55.1733811,92.816826 L62.1272541,66.679703 C62.1272541,66.679703 69.3433361,64.1861485 72.9014057,70.3972947 C72.9014057,70.3972947 61.4989631,99.016181 56.6180574,100.896594 C51.7377131,102.777568 48.1875041,103.620357 46.4104344,102.438993 Z" fill="#F8D1C4"></path>
                        <path d="M35.6121393,21.5969559 C35.9220738,23.5228492 37.9237336,21.8636613 37.9237336,21.8636613 C37.9237336,21.8636613 37.2117828,13.8613782 36.7670943,13.6833875 C36.3229672,13.5059582 35.1668893,18.8411879 35.6121393,21.5969559 Z" fill="#FF9F48"></path>
                        <path d="M0.953946721,37.4386914 C0.441881148,37.5633411 0.21279918,38.0518329 0.445811475,38.5251647 L7.51141803,52.8705429 C7.74443033,53.3433132 8.36598361,53.7060325 8.89264754,53.6762738 L15.3698279,53.3062552 C15.8964918,53.275935 16.1412951,52.8621206 15.9133361,52.3865429 L8.34970082,36.6116241 C8.1217418,36.1360464 7.51534836,35.8485661 7.00328279,35.9726543 L0.953946721,37.4386914 Z" fill="#E6E6E6"></path>
                        <path d="M15.9133361,52.3865429 L8.34970082,36.6116241 C8.1217418,36.1360464 7.51534836,35.8485661 7.00328279,35.9726543 L0.954508197,37.4392529 C0.717565574,37.4965244 0.545192623,37.6340882 0.447495902,37.8092715 L6.04484426,36.4521624 C6.55690984,36.3275128 7.1627418,36.6155545 7.39070082,37.0911323 L14.9548975,52.8666125 C15.034627,53.0322506 15.0531557,53.1894664 15.0256434,53.3259072 L15.3703893,53.3062552 C15.8970533,53.275935 16.1412951,52.8621206 15.9133361,52.3865429 Z" fill="#CCCCCC"></path>
                        <polygon fill="#546EFD" points="40.5463852 32.0697726 34.7912623 62.1238144 27.9176803 97.6130302 34.9512828 33.8283434 40.0663238 29.3516241"></polygon>
                        <polygon fill="#345AF7" points="30.7149508 80.5876845 25.2001393 108.883155 29.5156393 112.240274"></polygon>
                    </g>
                    <path d="M31.1147213,14.1887239 C31.1147213,14.1887239 33.5127828,14.9877169 34.1523033,13.0696845 C34.7912623,11.1510905 34.9512828,9.87258933 36.8692828,9.87258933 C38.7878443,9.87258933 39.2673443,11.6311601 40.7058443,10.6721439 C42.1449057,9.71312761 43.5834057,8.75354988 44.5429672,10.9916288 C45.5019672,13.2297077 45.1819262,13.869239 48.3789672,15.9472947 C51.5765697,18.0253503 51.2565287,18.5048585 50.7770287,24.2600789 C50.2975287,30.0152993 49.4985492,29.3752065 52.0555082,31.4538237 C54.6135902,33.5318794 57.0116516,28.0967053 57.1711107,27.1371276 C57.3305697,26.1781114 56.5315902,14.0287007 56.2121107,13.2291462 C55.8926311,12.4301531 46.3009467,5.23640835 45.8208852,5.07638515 C45.3413852,4.91636195 36.8687213,4.11736891 36.3892213,4.11736891 C35.9097213,4.11736891 33.0321598,4.59687703 32.5526598,5.07638515 C32.0731598,5.55589327 29.6750984,9.39251972 29.6750984,9.87202784 C29.6750984,10.351536 29.9945779,18.6648817 29.9945779,18.6648817" id="Shape" fill="#2B216E"></path>
                    <path d="M29.9182172,189.717332 C29.9182172,189.717332 18.9649549,202.346812 13.8504754,203.94536 C8.73487295,205.543907 21.5235984,208.741002 27.2781598,206.82297 C33.0332828,204.904376 43.9034467,195.312529 43.9034467,195.312529 C43.9034467,195.312529 42.2706762,188.308005 40.849582,187.493852" id="Shape" fill="#D1ECF7"></path>
                </g>
            </g>
        </g>
    </g>
</svg>