<svg xmlns="http://www.w3.org/2000/svg" viewBox="0 0 883.566 251.346">
  <defs>
    <style>
      .cls-1 {
        fill: #fff;
      }
    </style>
  </defs>
  <path id="Tracé_430" data-name="Tracé 430" class="cls-1" d="M70.161-164.737a112.68,112.68,0,0,1,27.756,3.084,102.884,102.884,0,0,1,21.588,7.967l-7.967,26.214a118.506,118.506,0,0,0-20.3-7.839,71.255,71.255,0,0,0-19.018-2.7q-12.336,0-19.146,4.883a15.332,15.332,0,0,0-6.811,13.107q0,8.481,5.911,12.85t19.018,8.481l15.42,4.883q19.275,6.425,30.2,18.247t10.923,29.041a48.41,48.41,0,0,1-3.855,19.275,42.956,42.956,0,0,1-11.565,15.677A56.151,56.151,0,0,1,93.034-1.028Q81.469,2.827,66.049,2.827q-29.041,0-53.2-11.822l7.967-26.214a128.24,128.24,0,0,0,21.588,8.353,81.464,81.464,0,0,0,22.1,2.955q13.621,0,20.56-5.011t6.939-14.007a16.443,16.443,0,0,0-1.157-6.039,14.871,14.871,0,0,0-4.241-5.654,41.5,41.5,0,0,0-8.353-5.4,84.7,84.7,0,0,0-13.749-5.268L50.886-69.9a103.429,103.429,0,0,1-16.448-7.2,54.209,54.209,0,0,1-12.721-9.509,38.755,38.755,0,0,1-8.224-12.722,45.474,45.474,0,0,1-2.955-17.09,48.139,48.139,0,0,1,3.855-19.4,41.555,41.555,0,0,1,11.437-15.291A54.428,54.428,0,0,1,44.59-161.139,83.418,83.418,0,0,1,70.161-164.737Zm66.049,42.148h35.723L187.61-57.568l4.626,32.125h1.028l5.4-32.125,15.163-65.021H249.8l15.42,65.021,5.4,32.125h1.028l5.4-32.125,15.163-65.021h34.7L292.98,0H253.145L237.211-66.306l-5.4-29.555L226.16-66.306,210.226,0H170.391ZM347.207,0V-122.589h34.181V0Zm17.219-148.8q-8.738,0-13.621-5.011a17.154,17.154,0,0,1-4.883-12.465,17.154,17.154,0,0,1,4.883-12.464q4.883-5.012,13.621-5.012,8.481,0,13.492,5.012a16.92,16.92,0,0,1,5.012,12.464,17.154,17.154,0,0,1-4.883,12.465Q373.164-148.8,364.426-148.8ZM488.557-97.917H455.918v56.54q0,8.738,3.983,11.951t10.665,3.213A56.253,56.253,0,0,0,481.1-27.242a30.767,30.767,0,0,0,8.738-2.827l5.14,23.9a70.653,70.653,0,0,1-13.107,4.112A80.584,80.584,0,0,1,463.371,0Q441.012,0,431.5-8.867t-9.509-26.6V-97.917H402.976v-24.672h19.018v-37.779h33.924v37.779h32.639Zm89.179,75.558a44.238,44.238,0,0,0,14.521-2.185,88.889,88.889,0,0,0,10.409-4.24L609.09-5.14a68.159,68.159,0,0,1-14.906,5.4,83.67,83.67,0,0,1-21.331,2.57A80.025,80.025,0,0,1,546.9-1.285a58.7,58.7,0,0,1-20.945-12.208A57.728,57.728,0,0,1,511.944-33.41q-5.14-11.822-5.14-27.5a68.042,68.042,0,0,1,4.883-26.214,59.658,59.658,0,0,1,13.621-20.3,60.144,60.144,0,0,1,21.074-13.107,76.275,76.275,0,0,1,26.985-4.626,98.385,98.385,0,0,1,16.833,1.542,63.759,63.759,0,0,1,18.633,6.682l-7.2,23.644A57.262,57.262,0,0,0,589.944-98.3a43.24,43.24,0,0,0-12.721-1.927q-15.934,0-25.828,9.766T541.5-61.937q0,11.051,3.213,18.633A33.9,33.9,0,0,0,553.064-31.1a31.458,31.458,0,0,0,11.565,6.682A42.755,42.755,0,0,0,577.736-22.359ZM666.658,0H632.477V-183.5h34.181v71.96a67.853,67.853,0,0,1,17.091-9.766,55.884,55.884,0,0,1,20.945-3.855,51.017,51.017,0,0,1,18.89,3.212,35.405,35.405,0,0,1,13.364,9,36.844,36.844,0,0,1,7.839,13.878,57.9,57.9,0,0,1,2.57,17.6V0H713.175V-75.558q0-12.593-5.14-17.99t-14.906-5.4a33.116,33.116,0,0,0-13.75,3.213,45.678,45.678,0,0,0-12.721,8.61ZM763.8-122.589h37.265L822.914-64.25l8.224,29.812h1.028l7.967-30.069,19.018-58.082H894.1L849.128,4.369a203.929,203.929,0,0,1-8.609,20.175,91.081,91.081,0,0,1-11.565,17.861,79.8,79.8,0,0,1-16.062,14.649,83.507,83.507,0,0,1-21.845,10.537L776.911,41.12a64.041,64.041,0,0,0,24.158-14.906A50.821,50.821,0,0,0,814.433,2.827l1.028-3.341Z" transform="translate(-10.537 183.755)"/>
</svg>
