<?xml version="1.0" encoding="UTF-8"?>
<svg width="263px" height="210px" viewBox="0 0 263 210" version="1.1" xmlns="http://www.w3.org/2000/svg" xmlns:xlink="http://www.w3.org/1999/xlink">
    <!-- Generator: sketchtool 50.2 (55047) - http://www.bohemiancoding.com/sketch -->
    <title>4AF84D06-7D35-4852-82B9-ED9BB775EE0E</title>
    <desc>Created with sketchtool.</desc>
    <defs></defs>
    <g id="Page-1" stroke="none" stroke-width="1" fill="none" fill-rule="evenodd">
        <g id="home" transform="translate(-407.000000, -1948.000000)" fill-rule="nonzero">
            <g id="headerPreview-03" transform="translate(407.000000, 1948.000000)">
                <polygon id="Shape" fill="#B2D4FF" points="70.2417043 0.893617021 44.2231702 132.41617 245.659906 102.216383 217.962649 0"></polygon>
                <g id="Group" transform="translate(6.714894, 8.377660)">
                    <path d="M61.1284745,0.692553191 C61.1284745,0.692553191 42.9512574,-5.6018617 31.8218809,19.9466489 C20.6925043,45.4946011 16.718966,59.847766 4.47659574,75.3989362 C-7.76521489,90.9501064 9.64370638,116.370718 33.0148936,118.962766 C56.3860809,121.554814 68.9188702,98.0727926 70.4023021,85.1136702 C71.8862936,72.1545479 71.8862936,56.6028191 75.9667106,49.5678191 C80.0482468,42.5328191 91.5486213,9.94930851 61.1284745,0.692553191 Z" id="Shape" fill="#2B216E"></path>
                    <path d="M58.1610511,62.1566489 C58.1610511,62.1566489 62.612466,60.3057447 71.8868532,80.299867 C81.1606809,100.293989 81.1606809,100.293989 81.1606809,100.293989 L114.548251,113.253112 C114.548251,113.253112 120.11266,110.290771 125.30663,111.031356 C130.5006,111.771941 133.839021,119.917819 126.419064,120.288112 C118.999666,120.657846 104.532428,118.806941 104.532428,118.806941 L70.0318638,111.031915 C70.0318638,111.031915 47.4026723,62.1566489 58.1610511,62.1566489 Z" id="Shape" fill="#F8D1C4"></path>
                    <path d="M38.1288447,59.1943085 C38.1288447,59.1943085 21.0640617,62.5269415 16.9830851,67.3401862 C12.9026681,72.1539894 15.1085106,133.484043 15.1085106,133.484043 L54.4510723,129.174574 C54.4510723,129.174574 60.4250894,105.525559 63.3544617,94.9255851 C70.7738596,68.0813298 58.0094064,61.0642021 58.0094064,61.0642021 L38.1288447,59.1943085 Z" id="Shape" fill="#546EFD"></path>
                    <path d="M44.311583,46.8528989 C44.311583,46.8528989 41.3436,56.2330851 39.3655043,58.4542819 C37.3868489,60.6760372 33.5532043,62.897234 33.5532043,62.897234 C33.5532043,62.897234 39.3655043,76.2260904 52.2256447,73.7580319 C52.2256447,73.7580319 58.408383,72.2774202 59.520817,67.7104787 C59.520817,67.7104787 56.552834,63.8846809 58.408383,58.0839894 C60.2628128,52.2827394 50.9889851,44.754016 44.311583,46.8528989 Z" id="Shape" fill="#F7C1B2"></path>
                    <path d="M85.2416574,23.649016 C85.2416574,23.649016 87.6668532,34.4416755 80.0197085,53.4310372 C74.9175085,66.1008511 55.7711085,64.787234 55.7711085,64.787234 C55.7711085,64.787234 41.8382638,58.8245745 42.2092617,35.4978191 C42.5802596,12.1710638 61.4614213,8.21178191 65.5804489,7.7281117 C71.8868532,6.9875266 84.8706596,9.57901596 85.2416574,23.649016 Z" id="Shape" fill="#F8D1C4"></path>
                    <path d="M58.9030468,15.5031383 C58.9030468,15.5031383 58.194066,28.2919149 69.5377596,29.2028457 C80.2961383,30.0668617 86.1073191,33.0292021 85.365883,35.990984 C85.365883,35.990984 91.5486213,32.9052128 86.7256489,19.9460904 C81.9032362,6.98696809 72.6294085,-1.15890957 58.9030468,0.322260638 C45.1766851,1.80343085 37.3868489,7.35726064 34.0478681,22.5381383 C30.7088872,37.719016 35.2738957,51.9576862 38.9838745,54.9200266 C38.9838745,54.9200266 45.547683,39.9407713 48.1446681,35.8675532 C50.7416532,31.7948936 60.3864787,26.6113564 58.9030468,15.5031383 Z" id="Shape" fill="#2B216E"></path>
                    <path d="M53.2379149,33.88875 C53.2379149,33.88875 50.6946489,24.8470213 45.4245766,27.9908777 C40.0800809,31.1788564 43.1846,41.792234 45.5001191,44.364734" id="Shape" fill="#F8D1C4"></path>
                </g>
                <polygon id="Shape" fill="#E7F4FC" points="263 181.515957 86.7340426 192.68617 0 141.303191 167.87234 133.484043"></polygon>
                <polygon id="Shape" fill="#F2F2F2" points="92.3297872 174.81383 97.9255319 183.191489 131.5 175.37234 91.7702128 149.680851 81.6978723 155.824468"></polygon>
                <path d="M27.8942277,72.6197872 C20.1329298,74.0166223 1.61884894,112.15508 0.978695745,114.31484 C0.338542553,116.474601 33.1794085,145.589761 33.1794085,145.589761 C33.1794085,145.589761 47.3987553,156.196995 50.1753638,152.192473 C52.9519723,148.187394 49.0371894,139.288085 40.2378809,138.722314 C31.4380128,138.156543 17.8649745,110.982766 17.8649745,110.982766 L38.1193319,82.1116755 C38.1193319,82.112234 39.6503277,70.5030319 27.8942277,72.6197872 Z" id="Shape" fill="#F8D1C4"></path>
                <polygon id="Shape" fill="#D1ECF7" points="0 141.303191 0 153.590426 86.7340426 210 86.7340426 192.68617"></polygon>
                <polygon id="Shape" fill="#BEE2ED" points="86.7340426 192.68617 263 181.515957 263 196.595745 86.7340426 210"></polygon>
                <g id="Group" transform="translate(138.214894, 63.111702)">
                    <path d="M67.1668426,92.9758245 C66.2334723,95.9029787 62.9521277,98.2978723 59.8744681,98.2978723 L4.47659574,98.2978723 C1.39893617,98.2978723 -0.355889362,95.9029787 0.577480851,92.9758245 L28.5203915,5.32260638 C29.4537617,2.39489362 32.7351064,0 35.812766,0 L91.2106383,0 C94.2882979,0 96.0431234,2.39489362 95.1097532,5.32204787 L67.1668426,92.9758245 Z" id="Shape" fill="#F2F2F2"></path>
                    <path d="M6.7328,92.9758245 L34.6757106,5.32260638 C35.6090809,2.39489362 38.8904255,0 41.9680851,0 L35.812766,0 C32.7351064,0 29.4537617,2.39489362 28.5203915,5.32204787 L0.577480851,92.975266 C-0.355889362,95.9029787 1.39893617,98.2978723 4.47659574,98.2978723 L10.6319149,98.2978723 C7.55425532,98.2978723 5.79942979,95.9029787 6.7328,92.9758245 Z" id="Shape" fill="#E6E6E6"></path>
                </g>
                <g id="Group" transform="translate(155.002128, 39.095745)">
                    <path d="M32.9013,45.4314894 C32.4452468,46.8618351 30.8415064,48.0319149 29.3379298,48.0319149 L2.26851489,48.0319149 C0.764378723,48.0319149 -0.0928893617,46.8612766 0.36316383,45.4314894 L14.0167809,2.60042553 C14.472834,1.17007979 16.0765745,0 17.5801511,0 L44.649566,0 C46.1537021,0 47.0109702,1.1706383 46.554917,2.60042553 L32.9013,45.4314894 Z" id="Shape" fill="#546EFD"></path>
                    <path d="M3.37031702,45.4314894 L17.023934,2.60042553 C17.4799872,1.17007979 19.0837277,0 20.5873043,0 L17.5795915,0 C16.0754553,0 14.4722745,1.1706383 14.0162213,2.60042553 L0.362604255,45.4314894 C-0.0928893617,46.8618351 0.764378723,48.0319149 2.26795532,48.0319149 L5.27566809,48.0319149 C3.77209149,48.0319149 2.9148234,46.8612766 3.37031702,45.4314894 Z" id="Shape" fill="#72A6CE"></path>
                </g>
                <path d="M82.630683,49.3349202 C82.630683,49.3349202 81.511534,60.505133 81.3251957,61.6221543 C81.1388574,62.7391755 74.237066,63.2976862 74.7966404,60.691117 C75.3562149,58.0845479 82.630683,49.3349202 82.630683,49.3349202 Z" id="Shape" fill="#FF9F48"></path>
                <g id="Group" transform="translate(106.878723, 32.952128)" fill="#FFFFFF">
                    <path d="M22.1031915,43.8430851 C10.0695426,43.8430851 0.279787234,34.0719415 0.279787234,22.0611702 C0.279787234,10.0503989 10.0695426,0.279255319 22.1031915,0.279255319 C34.1368404,0.279255319 43.9265957,10.0503989 43.9265957,22.0611702 C43.9265957,34.0719415 34.1368404,43.8430851 22.1031915,43.8430851 Z M22.1031915,1.95478723 C10.9950787,1.95478723 1.95851064,10.9741755 1.95851064,22.0611702 C1.95851064,33.1481649 10.9950787,42.1675532 22.1031915,42.1675532 C33.2113043,42.1675532 42.2478723,33.1481649 42.2478723,22.0611702 C42.2478723,10.9741755 33.2113043,1.95478723 22.1031915,1.95478723 Z" id="Shape"></path>
                    <path d="M22.1031915,7.53989362 C21.6398638,7.53989362 21.2638298,7.16513298 21.2638298,6.70212766 L21.2638298,1.11702128 C21.2638298,0.654015957 21.6398638,0.279255319 22.1031915,0.279255319 C22.5665191,0.279255319 22.9425532,0.654015957 22.9425532,1.11702128 L22.9425532,6.70212766 C22.9425532,7.16513298 22.5665191,7.53989362 22.1031915,7.53989362 Z" id="Shape"></path>
                    <path d="M22.1031915,43.8430851 C21.6398638,43.8430851 21.2638298,43.467766 21.2638298,43.0053191 L21.2638298,37.4202128 C21.2638298,36.957766 21.6398638,36.5824468 22.1031915,36.5824468 C22.5665191,36.5824468 22.9425532,36.957766 22.9425532,37.4202128 L22.9425532,43.0053191 C22.9425532,43.467766 22.5665191,43.8430851 22.1031915,43.8430851 Z" id="Shape"></path>
                    <path d="M6.71489362,22.8989362 L1.11914894,22.8989362 C0.655821277,22.8989362 0.279787234,22.5241755 0.279787234,22.0611702 C0.279787234,21.5981649 0.655821277,21.2234043 1.11914894,21.2234043 L6.71489362,21.2234043 C7.17822128,21.2234043 7.55425532,21.5981649 7.55425532,22.0611702 C7.55425532,22.5241755 7.17822128,22.8989362 6.71489362,22.8989362 Z" id="Shape"></path>
                    <path d="M43.087234,22.8989362 L37.4914894,22.8989362 C37.0281617,22.8989362 36.6521277,22.5241755 36.6521277,22.0611702 C36.6521277,21.5981649 37.0281617,21.2234043 37.4914894,21.2234043 L43.087234,21.2234043 C43.5505617,21.2234043 43.9265957,21.5981649 43.9265957,22.0611702 C43.9265957,22.5241755 43.5505617,22.8989362 43.087234,22.8989362 Z" id="Shape"></path>
                    <path d="M22.2895298,23.9226862 C21.2610319,23.9226862 20.4244681,23.0877128 20.4244681,22.0611702 C20.4244681,21.0346277 21.2610319,20.1996543 22.2895298,20.1996543 C23.3180277,20.1996543 24.1545915,21.0346277 24.1545915,22.0611702 C24.1545915,23.0877128 23.3180277,23.9226862 22.2895298,23.9226862 Z M22.2895298,21.8751862 C22.1865681,21.8751862 22.1031915,21.9584043 22.1031915,22.0611702 C22.1031915,22.1639362 22.1865681,22.2471543 22.2895298,22.2471543 C22.3924915,22.2471543 22.4758681,22.1639362 22.4758681,22.0611702 C22.4758681,21.9584043 22.3924915,21.8751862 22.2895298,21.8751862 Z" id="Shape"></path>
                    <path d="M22.1031915,22.6196809 C21.6398638,22.6196809 21.2638298,22.2449202 21.2638298,21.7819149 L21.2638298,10.6117021 C21.2638298,10.1486968 21.6398638,9.77393617 22.1031915,9.77393617 C22.5665191,9.77393617 22.9425532,10.1486968 22.9425532,10.6117021 L22.9425532,21.7819149 C22.9425532,22.2449202 22.5665191,22.6196809 22.1031915,22.6196809 Z" id="Shape"></path>
                    <path d="M27.3262596,27.7395479 C27.111383,27.7395479 26.8965064,27.6580053 26.7325511,27.4943617 L21.6029319,22.3744947 C21.2750213,22.047766 21.2750213,21.5171809 21.6029319,21.1898936 C21.9308426,20.8626064 22.4618787,20.8626064 22.7897894,21.1898936 L27.9194085,26.3097606 C28.2473191,26.6364894 28.2473191,27.1670745 27.9194085,27.4943617 C27.7560128,27.6574468 27.5411362,27.7395479 27.3262596,27.7395479 Z" id="Shape"></path>
                </g>
                <polygon id="Shape" fill="#FFFFFF" points="64.9106383 159.734043 83.9361702 179.281915 108.557447 175.37234 84.4957447 152.473404"></polygon>
            </g>
        </g>
    </g>
</svg>