<svg _ngcontent-c2="" height="368" viewBox="0 0 455.736 467.782" xmlns="http://www.w3.org/2000/svg"><defs _ngcontent-c2=""><style _ngcontent-c2=""> .cls-1 { fill: #afbac8; } .cls-2 { fill: #1fb571; } .cls-3 { fill: #3ecf8e; } .cls-4 { fill: #d1ecf7; } .cls-24, .cls-5 { fill: #fff; } .cls-6 { fill: #e7f4fc; } .cls-7 { fill: #b2d4ff; } .cls-8 { fill: #1f37bb; } .cls-9 { fill: #6e90a6; } .cls-10 { fill: #5a7586; } .cls-11 { fill: #3751e2; } .cls-12 { fill: #546efd; } .cls-13 { fill: #30acba; } .cls-14 { fill: #f8d1c4; } .cls-15 { fill: #90bde6; } .cls-16 { fill: #e6eff2; } .cls-17 { fill: #ccdee2; } .cls-18 { fill: #2b216e; } .cls-19 { fill: #f7c1b2; } .cls-20 { fill: #3c3278; } .cls-21 { fill: #8f7ab9; } .cls-22 { fill: #cacaca; } .cls-23 { fill: #fcc2af; } .cls-24 { stroke: #d2d2d2; stroke-width: 0.5px; } .cls-25 { fill: #f79a3c; } .cls-26 { fill: #6d76c8; } </style></defs><g _ngcontent-c2="" data-name="Groupe 34" id="Groupe_34" transform="translate(-744 -218.613)"><g _ngcontent-c2="" data-name="Groupe 1" id="Groupe_1" transform="translate(744 346.602)"><path _ngcontent-c2="" class="cls-1" d="M36.964,15.545,383.256,0l18.482,39.833L0,49.548Z" data-name="Tracé 1" id="Tracé_1" transform="translate(0 290.245)"></path><path _ngcontent-c2="" class="cls-2" d="M49.782,115.225c1.185-17.108,10.347-53.825.588-69.6-3.358-6.117-9.7-9.915-13.136-16.675S32.311,9.969,26.379,4.164c-8.255-8.785-16.642-2.547-19.9,8.288-3.82,11.556,4.1,22.991,1.573,34.391C7.062,54.793.371,58.867.022,66.74s3.5,12.625,6.21,18.821c2.793,6.839,1.547,18.082,5.549,24.121,9.525,13.851,49.283,7.719,38.741-14.49" data-name="Tracé 2" id="Tracé_2" transform="translate(318.184 136.429)"></path><path _ngcontent-c2="" class="cls-3" d="M31.453,7.975C33.646-4.2,56.267-3.036,60.282,15.666c1.986,14.066-16.659,20.122-17.787,33.286C41.809,62.917,55.207,74.9,46.766,89.987c-3.678,5.679-10.73,9.027-13.786,14.886-2.874,5.236-1.59,17.075-5.167,20.085C15.737,136.292.512,114.337.113,104.1c-1.1-12.46,6.253-23.816,5.772-36.1-.059-6.762-4.578-12.12-2.407-19.584,3.337-9.15,13.142-10.351,18.607-17.534s4-18.4,8.926-23.716" data-name="Tracé 3" id="Tracé_3" transform="translate(339.653 128.66)"></path><path _ngcontent-c2="" class="cls-4" d="M86.253,48.579a5.2,5.2,0,0,1-5.188,5.182H5.188A5.2,5.2,0,0,1,0,48.579V5.182A5.2,5.2,0,0,1,5.188,0H81.065a5.2,5.2,0,0,1,5.188,5.182Z" data-name="Tracé 4" id="Tracé_4" transform="translate(176.004 166.803)"></path><path _ngcontent-c2="" class="cls-5" d="M81.713,43.856A4.657,4.657,0,0,1,77,48.579H4.929A4.843,4.843,0,0,1,0,43.856V4.294C0,1.7,2.217,0,4.929,0H77c2.711,0,4.713,1.7,4.713,4.294V43.856Z" data-name="Tracé 5" id="Tracé_5" transform="translate(178.598 169.394)"></path><path _ngcontent-c2="" class="cls-6" d="M101.818,5.829H0V0H108.3Z" data-name="Tracé 6" id="Tracé_6" transform="translate(164.979 220.563)"></path><path _ngcontent-c2="" class="cls-7" d="M112.774,121.707l-97.21,39.567L0,29.146,114.783,0Z" data-name="Tracé 7" id="Tracé_7" transform="translate(0.973 54.164)"></path><path _ngcontent-c2="" class="cls-8" d="M0,0H7.782V62.181H0Z" data-name="Tracé 8" id="Tracé_8" transform="translate(78.078 254.893)"></path><path _ngcontent-c2="" class="cls-9" d="M0,0H215.308V9.068H0Z" data-name="Tracé 9" id="Tracé_9" transform="translate(104.667 226.393)"></path><path _ngcontent-c2="" class="cls-10" d="M0,0H9.728V72.545H0Z" data-name="Tracé 10" id="Tracé_10" transform="translate(266.797 235.462)"></path><path _ngcontent-c2="" class="cls-10" d="M0,0H10.376V72.545H0Z" data-name="Tracé 11" id="Tracé_11" transform="translate(129.311 235.462)"></path><path _ngcontent-c2="" class="cls-8" d="M0,0H129.055V14.9H0Z" data-name="Tracé 12" id="Tracé_12" transform="translate(45.652 241.291)"></path><path _ngcontent-c2="" class="cls-11" d="M0,0H129.055V9.716H0Z" data-name="Tracé 13" id="Tracé_13" transform="translate(45.652 246.472)"></path><path _ngcontent-c2="" class="cls-8" d="M0,0H7.782V62.181H0Z" data-name="Tracé 14" id="Tracé_14" transform="translate(45.652 256.188)"></path><path _ngcontent-c2="" class="cls-8" d="M0,0H7.782V62.181H0Z" data-name="Tracé 15" id="Tracé_15" transform="translate(113.098 254.893)"></path><path _ngcontent-c2="" class="cls-8" d="M0,0H7.782V62.181H0Z" data-name="Tracé 16" id="Tracé_16" transform="translate(164.979 252.949)"></path><path _ngcontent-c2="" class="cls-12" d="M79.861,80.429c0,5.416-4.437,10.252-9.859,10.252H19.719c-5.422,0-9.859-4.837-9.859-10.252L0,9.688A9.747,9.747,0,0,1,9.859,0H60.142A9.747,9.747,0,0,1,70,9.688Z" data-name="Tracé 17" id="Tracé_17" transform="translate(28.482 151.906)"></path><path _ngcontent-c2="" class="cls-11" d="M20.7,80.429,10.845,9.688A9.747,9.747,0,0,1,20.7,0H9.859A9.681,9.681,0,0,0,0,9.608L9.859,80.486a10.186,10.186,0,0,0,9.859,10.194H30.564C25.141,90.681,20.7,85.844,20.7,80.429Z" data-name="Tracé 18" id="Tracé_18" transform="translate(28.482 151.906)"></path><path _ngcontent-c2="" class="cls-13" d="M14.132,0s5.916,5.25,13.474,5.579S45.023,10.5,39.766,15.755,9.531,22.32,4.929,14.114,0,2.954,0,2.954" data-name="Tracé 19" id="Tracé_19" transform="translate(164.376 303.647)"></path><path _ngcontent-c2="" class="cls-14" d="M3.106.68s11.5-5.254,17.747,13.455c4.076,12.212,11.832,28.232,11.832,28.232l34.508-5.58s2.628-6.564,6.572-9.519,5.916.985,6.245,2.627-5.258,11.487-7.888,13.129S32.356,59.107,25.454,57.466,10.009,36.787,10.009,36.787-6.753,2.321,3.106.68Z" data-name="Tracé 20" id="Tracé_20" transform="translate(105.072 131.629)"></path><path _ngcontent-c2="" class="cls-15" d="M.587,15.888l15.3,34.1a38.134,38.134,0,0,0,3.62,4.625c3.163-13.07,8.685-14.843,10.438-15.067A267.96,267.96,0,0,1,19.648,14.575c-1.9-5.693-4.287-10.144-6.689-12.222A15.293,15.293,0,0,0,2.887.133L1.9,1.12C-1.385,4.4.587,15.888.587,15.888Z" data-name="Tracé 21" id="Tracé_21" transform="translate(106.277 131.188)"></path><path _ngcontent-c2="" class="cls-16" d="M13.146,0,48.311.687,33.522,47H0Z" data-name="Tracé 22" id="Tracé_22" transform="translate(134.47 137.292)"></path><path _ngcontent-c2="" class="cls-17" d="M13.146,0,0,47H2.958L16.088.085Z" data-name="Tracé 23" id="Tracé_23" transform="translate(134.47 137.292)"></path><path _ngcontent-c2="" class="cls-4" d="M3.151,88.644l53.24.329s-.041-70.117-3-78S40.206-3.013,17.858,1.582.193,12.168.85,22.015,3.151,88.644,3.151,88.644Z" data-name="Tracé 24" id="Tracé_24" transform="translate(66.576 130.972)"></path><path _ngcontent-c2="" class="cls-18" d="M16.268-.584S78.3-18.9,91.2,2.534,67.866,85.17,67.866,85.17A81.212,81.212,0,0,0,52.42,83.161L63.266,25.7l-44.038-.008s-10.845.154-12.16-6.083S0-.584,0-.584Z" data-name="Tracé 25" id="Tracé_25" transform="translate(77.779 218.557)"></path><path _ngcontent-c2="" class="cls-13" d="M2.944,0s-4.6,5.746-2.3,11.654S5.9,16.743,5.9,16.743l28.921-.985s1.314-5.745-2.63-7.714S20.033,6.155,16.747,3.2" data-name="Tracé 26" id="Tracé_26" transform="translate(128.568 302.333)"></path><path _ngcontent-c2="" class="cls-19" d="M25.051,4.923s0,25.6-.986,27.572S2.375,15.427.4,14.442,4.346,13.786,4.346,0" data-name="Tracé 27" id="Tracé_27" transform="translate(85.1 118.522)"></path><path _ngcontent-c2="" class="cls-14" d="M41.909,8.778s1.972,20.678-.986,28.884S30.406,53.09,19.232,51.121,1.156,36.675.171,28.8,2.143,6.808,17.917,1.885,41.252,2.542,41.909,8.778Z" data-name="Tracé 28" id="Tracé_28" transform="translate(84.017 78.233)"></path><path _ngcontent-c2="" class="cls-15" d="M13.187,0S-2.588,1.641.369,17.727C2.866,31.3,34.877,59.085,34.877,59.085l.657-23.633S21.074,4.923,13.187,0Z" data-name="Tracé 29" id="Tracé_29" transform="translate(61.799 135.26)"></path><path _ngcontent-c2="" class="cls-14" d="M66.348,5.131S62.075-4.388,55.173,2.5L41.37,16.291,3.9,19.573s-7.558,11.16-1.643,22.977c0,0,43.381-17.724,51.269-23.3S66.348,9.071,66.348,5.131Z" data-name="Tracé 30" id="Tracé_30" transform="translate(94.086 150.81)"></path><path _ngcontent-c2="" class="cls-20" d="M5.439-.295s45.928-19.858,72.63,1.641S112.249,85.7,112.249,85.7s-10.188,1.281-17.09,1.281L65.253,29.5H12.67S1.825,29.538.51,23.3.838-.642.838-.642Z" data-name="Tracé 31" id="Tracé_31" transform="translate(68.56 217.615)"></path><path _ngcontent-c2="" class="cls-21" d="M.986,0,19.062,3.282l-.329,6.565L0,4.924Z" data-name="Tracé 32" id="Tracé_32" transform="translate(127.897 298.723)"></path><path _ngcontent-c2="" class="cls-21" d="M0,3.282,1.314,7.55,21.69,3.611,20.7,0Z" data-name="Tracé 33" id="Tracé_33" transform="translate(161.419 301.021)"></path><path _ngcontent-c2="" class="cls-18" d="M48.167,24.83s0-6.237-11.173-6.237-20.7,3.61-20.048,12.145a66.875,66.875,0,0,1,0,13.129l-2.3-.657s-.651-11.488-3.609-11.816S3.882,33.364,9.07,44.2v2.957S4.792,43.538,1.505,35,.516,13.341,6.432,7.1A20.2,20.2,0,0,1,26.478,1.2c6.573,1.641,11.5-4.6,18.732,1.641S58.683,15.312,48.167,24.83Z" data-name="Tracé 34" id="Tracé_34" transform="translate(78.087 69.072)"></path><path _ngcontent-c2="" class="cls-22" d="M22.7,2.734c0,6.186-.381,11.14-11.349,11.14C1.121,13.874,0,8.8,0,2.611V0H22.7Z" data-name="Tracé 35" id="Tracé_35" transform="translate(282.361 213.439)"></path><path _ngcontent-c2="" class="cls-6" d="M.492,10.462a.492.492,0,0,1-.045-.983c2.084-.2,5.632-1.11,5.963-5.028A2.988,2.988,0,0,0,5.6,2.163,3.726,3.726,0,0,0,2.9.985.492.492,0,1,1,2.9,0,4.66,4.66,0,0,1,6.321,1.5,3.955,3.955,0,0,1,7.393,4.534C6.986,9.339,2.464,10.279.54,10.46Z" data-name="Tracé 36" id="Tracé_36" transform="translate(302.202 213.958)"></path><path _ngcontent-c2="" class="cls-23" d="M4.272,14.615C3.7,18.169,0,15.107,0,15.107S1.315.336,2.136.008,5.094,9.527,4.272,14.615Z" data-name="Tracé 37" id="Tracé_37" transform="translate(115.408 102.594)"></path><path _ngcontent-c2="" class="cls-7" d="M155.154,105.257a9.878,9.878,0,0,1-9.041,10.6L18.349,126.067a9.884,9.884,0,0,1-10.614-9.03L.032,20.841a9.879,9.879,0,0,1,9.04-10.6L136.837.031a9.883,9.883,0,0,1,10.613,9.031Z" data-name="Tracé 38" id="Tracé_38" transform="translate(179.133 0)"></path><path _ngcontent-c2="" class="cls-24" d="M9.728,0S7.782,17.488,0,27.2l14.916,6.477S30.48,10.363,30.48,3.886Z" data-name="Tracé 59" id="Tracé_59" transform="translate(207.133 153.849)"></path><path _ngcontent-c2="" class="cls-24" d="M0,16.517S14.916.972,27.886,0l8.755,16.193S7.458,22.022,6.485,30.767Z" data-name="Tracé 60" id="Tracé_60" transform="translate(249.935 165.831)"></path><path _ngcontent-c2="" class="cls-24" d="M11.414,0s12.452,11.918,13.23,22.282l-12.97,7S7,5.959,0,5.182Z" data-name="Tracé 61" id="Tracé_61" transform="translate(303.438 169.394)"></path><path _ngcontent-c2="" class="cls-25" d="M7.782,0H49.287l9.728,2.591L50.584,56.352H7.782L0,1.943Z" data-name="Tracé 62" id="Tracé_62" transform="translate(320.624 251.654)"></path></g><g _ngcontent-c2="" data-name="Groupe 18" id="Groupe_18" transform="translate(970.444 370.418) rotate(11)"><rect _ngcontent-c2="" class="cls-12" data-name="Rectangle 7" height="115.355" id="Rectangle_7" rx="10" transform="translate(0 0)" width="145.868"></rect><rect _ngcontent-c2="" class="cls-5" data-name="Rectangle 8" height="68.469" id="Rectangle_8" rx="10" transform="translate(8.187 11.163)" width="128.765"></rect><rect _ngcontent-c2="" class="cls-4" data-name="Rectangle 9" height="5.21" id="Rectangle_9" rx="2.605" transform="translate(55.817 87.074)" width="81.135"></rect><rect _ngcontent-c2="" class="cls-5" data-name="Rectangle 10" height="5.21" id="Rectangle_10" rx="2.605" transform="translate(8.187 99.726)" width="128.765"></rect><rect _ngcontent-c2="" class="cls-4" data-name="Rectangle 11" height="5.21" id="Rectangle_11" rx="2.605" transform="translate(8.187 87.074)" width="43.18"></rect><g _ngcontent-c2="" data-name="Groupe 21" id="Groupe_21" transform="translate(30.02 25.62)"><path _ngcontent-c2="" class="cls-26" d="M6.173,0A6.173,6.173,0,1,1,0,6.173,6.173,6.173,0,0,1,6.173,0Z" data-name="Tracé 354" id="Tracé_354" transform="translate(4.668 0)"></path><path _ngcontent-c2="" class="cls-7" d="M59.48,37.029S33.817,4.61,18.947.476,0,20.493,0,20.493l9.894,9.544,7.249,6.992H59.48Z" data-name="Tracé 352" id="Tracé_352" transform="translate(33.214 4.654)"></path><path _ngcontent-c2="" class="cls-12" d="M49.852,14.48S42.114-1.615,30.161.133-5.316,19.693,1.084,26.213s54.677,0,54.677,0Z" data-name="Tracé 353" id="Tracé_353" transform="translate(0 15.47)"></path></g></g><g _ngcontent-c2="" id="facebook-logo" transform="translate(1045.766 218.613)"><path _ngcontent-c2="" class="cls-5" d="M41.345.008,36.542,0c-5.4,0-8.882,3.577-8.882,9.114v4.2H22.832a.755.755,0,0,0-.755.755V20.16a.755.755,0,0,0,.755.755h4.829V36.278a.755.755,0,0,0,.755.755h6.3a.755.755,0,0,0,.755-.755V20.915h5.646a.755.755,0,0,0,.755-.755l0-6.088a.756.756,0,0,0-.755-.756H35.471V9.754c0-1.712.408-2.581,2.638-2.581h3.235a.755.755,0,0,0,.755-.755V.763A.755.755,0,0,0,41.345.008Z" data-name="Tracé 356" id="Tracé_356" transform="translate(-22.077)"></path></g><g _ngcontent-c2="" id="twitter-logo-silhouette" transform="translate(926.727 274.831)"><g _ngcontent-c2="" data-name="Groupe 22" id="Groupe_22" transform="translate(0 0)"><path _ngcontent-c2="" class="cls-5" d="M37.034,61a15.171,15.171,0,0,1-4.362,1.2A7.628,7.628,0,0,0,36.011,58a15.315,15.315,0,0,1-4.827,1.844,7.6,7.6,0,0,0-12.945,6.926A21.568,21.568,0,0,1,2.581,58.829,7.606,7.606,0,0,0,4.932,68.97a7.6,7.6,0,0,1-3.441-.953v.095A7.6,7.6,0,0,0,7.584,75.56a7.7,7.7,0,0,1-2,.266,7.29,7.29,0,0,1-1.43-.141,7.6,7.6,0,0,0,7.1,5.276,15.242,15.242,0,0,1-9.435,3.247A16.147,16.147,0,0,1,0,84.1a21.474,21.474,0,0,0,11.645,3.418c13.975,0,21.614-11.575,21.614-21.614l-.025-.983A15.17,15.17,0,0,0,37.034,61Z" data-name="Tracé 357" id="Tracé_357" transform="translate(-0.001 -57.441)"></path></g></g><g _ngcontent-c2="" id="slack" transform="translate(1126.46 289.997)"><path _ngcontent-c2="" class="cls-12" d="M249.476,2.289A3.3,3.3,0,0,0,243.2,4.328l8.529,26.245A3.3,3.3,0,0,0,258,28.536C257.982,28.469,249.476,2.289,249.476,2.289Z" data-name="Tracé 358" id="Tracé_358" transform="translate(-225.46 -0.009)"></path><path _ngcontent-c2="" class="cls-12" d="M66.748,61.667a3.3,3.3,0,0,0-6.275,2.039L69,89.949a3.3,3.3,0,0,0,6.273-2.037Z" data-name="Tracé 359" id="Tracé_359" transform="translate(-55.948 -55.091)"></path><path _ngcontent-c2="" class="cls-12" d="M89.833,249.483a3.3,3.3,0,1,0-2.039-6.275L61.549,251.74a3.3,3.3,0,0,0,2.037,6.273C63.653,257.989,89.833,249.483,89.833,249.483Z" data-name="Tracé 360" id="Tracé_360" transform="translate(-55.079 -225.467)"></path><path _ngcontent-c2="" class="cls-12" d="M138.905,327.937l6.273-2.039-2.039-6.273-6.273,2.039Z" data-name="Tracé 361" id="Tracé_361" transform="translate(-126.966 -296.507)"></path><path _ngcontent-c2="" class="cls-12" d="M321.657,268.515c2.372-.771,4.576-1.486,6.273-2.039-.555-1.708-1.271-3.912-2.039-6.275l-6.272,2.039Z" data-name="Tracé 362" id="Tracé_362" transform="translate(-296.5 -241.381)"></path><path _ngcontent-c2="" class="cls-12" d="M30.458,66.763a3.3,3.3,0,0,0-2.039-6.275L2.176,69.018A3.3,3.3,0,0,0,4.212,75.29Z" data-name="Tracé 363" id="Tracé_363" transform="translate(0 -55.963)"></path><path _ngcontent-c2="" class="cls-12" d="M79.543,145.185l6.275-2.039c-.771-2.37-1.486-4.574-2.039-6.273l-6.273,2.039Z" data-name="Tracé 364" id="Tracé_364" transform="translate(-71.9 -126.974)"></path><path _ngcontent-c2="" class="cls-12" d="M262.265,85.8c2.373-.771,4.576-1.486,6.275-2.039-.771-2.372-1.488-4.576-2.039-6.275l-6.275,2.039Z" data-name="Tracé 365" id="Tracé_365" transform="translate(-241.404 -71.877)"></path></g><g _ngcontent-c2="" id="whatsapp" transform="translate(1163.003 376.351)"><path _ngcontent-c2="" class="cls-12" d="M19.159.022A18.374,18.374,0,0,0,3.689,26.708l-1.95,9.465a.715.715,0,0,0,.865.84l9.275-2.2A18.368,18.368,0,1,0,19.159.022ZM30.226,28.536a14.391,14.391,0,0,1-16.57,2.712L12.365,30.6,6.678,31.952l1.2-5.811L7.239,24.9A14.394,14.394,0,0,1,9.888,8.2,14.381,14.381,0,1,1,30.226,28.536Z" data-name="Tracé 366" id="Tracé_366" transform="translate(-1.69 0)"></path><path _ngcontent-c2="" class="cls-12" d="M122.748,120.253l-3.558-1.022a1.326,1.326,0,0,0-1.312.346l-.87.886a1.3,1.3,0,0,1-1.409.3,18.992,18.992,0,0,1-6.127-5.4,1.3,1.3,0,0,1,.1-1.436l.76-.983a1.326,1.326,0,0,0,.164-1.347l-1.5-3.385a1.327,1.327,0,0,0-2.072-.474,5.984,5.984,0,0,0-2.314,3.53c-.253,2.493.816,5.635,4.859,9.408,4.67,4.359,8.41,4.935,10.845,4.345a5.983,5.983,0,0,0,3.181-2.774A1.327,1.327,0,0,0,122.748,120.253Z" data-name="Tracé 367" id="Tracé_367" transform="translate(-95.468 -97.904)"></path></g></g></svg>